<?xml version="1.0" encoding="utf-8"?>
<!-- Generator: Adobe Illustrator 19.0.0, SVG Export Plug-In . SVG Version: 6.00 Build 0)  -->
<svg version="1.1" id="Layer_1" xmlns="http://www.w3.org/2000/svg" xmlns:xlink="http://www.w3.org/1999/xlink" x="0px" y="0px"
	 viewBox="0 0 1000 1000" style="enable-background:new 0 0 1000 1000;" xml:space="preserve">
<g id="XMLID_105_">
	<path id="XMLID_310_" d="M573.9,478.8V254.5c0-7.3,5.9-13.3,13.3-13.3h3.2c3.5,0,6.3-2.8,6.3-6.3v-19.7c0-3.9-3.2-7.1-7.1-7.1
		h-43.4c-7.7,0-13.9,6.2-13.9,13.9v356.9c0,13.5,10.9,24.4,24.4,24.4h39.8c7.5,0,13.5,6,13.5,13.5v80.3c0,7.3-5.9,13.3-13.3,13.3
		h-59c-3,0-5.4,2.4-5.4,5.4v4c0,7.3-5.9,13.3-13.3,13.3h-37.7c-7.5,0-13.5-6-13.5-13.5v-3.9c0-2.9-2.4-5.3-5.3-5.3h-59.8
		c-7.5,0-13.5-6-13.5-13.5v-80.1c0-7.5,6-13.5,13.5-13.5h40.8c13.5,0,24.4-10.9,24.4-24.4V221.8c0-7.6-6.2-13.7-13.7-13.7h-44.7
		c-3.8,0-7,3.1-7,7v19c0,4,3.3,7.3,7.3,7.3h1.3c7.9,0,14.2,6.4,14.2,14.2v224.1c0,27-15.2,51.7-39.4,63.7
		c-84.3,41.9-142.2,128.9-142.2,229.4c0,89.9,46.4,169,116.5,214.7c6.4,4.2,14.9-0.4,14.9-8V977c0-4.4,2.1-8.5,5.7-10.9
		c12.2-8.5,40.1-28.3,44.5-36.4c5.6-10.4,3.4-56.3,3.4-56.3s-59.2-5.6-91.9-20.2c-23.8-10.6-56.6-35.9-70.5-51.5
		c-5.2-5.8-4.3-14.4-4.3-14.4h136.9v-13.3h311.8c0,0,1,17.3-5.9,23.6c-7,6.3-70.3,31.3-89,46.6c-18.8,15.3-51.7,46.6-42,79.3
		c7.1,23.8,33.2,37.6,46.9,43.4c5.2,2.2,8.6,7.3,8.6,12.9v2.1c0,5.3,5.9,8.6,10.4,5.7c70.1-45.7,116.5-124.8,116.5-214.7
		c0-100.4-57.7-187.2-141.8-229.2C589.4,531.2,573.9,506.2,573.9,478.8z"/>
	<circle id="XMLID_306_" cx="457.8" cy="664.1" r="16.6"/>
	<circle id="XMLID_308_" cx="512.2" cy="687.4" r="23"/>
	<ellipse id="XMLID_309_" cx="542" cy="641" rx="17.2" ry="18"/>
	<ellipse id="XMLID_312_" cx="504" cy="491.2" rx="12.8" ry="12.5"/>
	<ellipse id="XMLID_311_" cx="493.5" cy="579.4" rx="18.3" ry="17.9"/>
	<ellipse id="XMLID_360_" cx="493.5" cy="625.8" rx="10.4" ry="10.2"/>
	<ellipse id="XMLID_361_" cx="441.4" cy="623" rx="6.7" ry="6.5"/>
	<ellipse id="XMLID_362_" cx="563.7" cy="674.2" rx="6.7" ry="6.5"/>
	<ellipse id="XMLID_331_" cx="491.1" cy="397.9" rx="8.5" ry="8.3"/>
	<ellipse id="XMLID_349_" cx="511.9" cy="316.4" rx="5.7" ry="5.6"/>
	<ellipse id="XMLID_352_" cx="492" cy="245.3" rx="8.4" ry="8.2"/>
	<ellipse id="XMLID_354_" cx="519.5" cy="183.7" rx="15.3" ry="14.9"/>
	<ellipse id="XMLID_355_" cx="461.7" cy="139.1" rx="29.8" ry="29.1"/>
	<ellipse id="XMLID_359_" cx="550.8" cy="60.5" rx="51.1" ry="50"/>
</g>
</svg>
