<?xml version="1.0" encoding="utf-8"?>
<!-- Generator: Adobe Illustrator 19.0.0, SVG Export Plug-In . SVG Version: 6.00 Build 0)  -->
<svg version="1.1" id="Layer_1" xmlns="http://www.w3.org/2000/svg" xmlns:xlink="http://www.w3.org/1999/xlink" x="0px" y="0px"
	 viewBox="0 0 1364 494" style="enable-background:new 0 0 1364 494;" xml:space="preserve">
<path id="XMLID_310_" d="M725.4,238.9V133.8c0-3.4,2.8-6.2,6.2-6.2h1.5c1.6,0,3-1.3,3-3v-9.3c0-1.8-1.5-3.3-3.3-3.3h-20.4
	c-3.6,0-6.5,2.9-6.5,6.5v167.2c0,6.3,5.1,11.4,11.4,11.4H736c3.5,0,6.3,2.8,6.3,6.3v37.6c0,3.4-2.8,6.2-6.2,6.2h-27.6
	c-1.4,0-2.6,1.1-2.6,2.6v1.9c0,3.4-2.8,6.2-6.2,6.2H682c-3.5,0-6.3-2.8-6.3-6.3v-1.8c0-1.4-1.1-2.5-2.5-2.5h-28
	c-3.5,0-6.3-2.8-6.3-6.3v-37.5c0-3.5,2.8-6.3,6.3-6.3h19.1c6.3,0,11.4-5.1,11.4-11.4V118.5c0-3.6-2.9-6.4-6.4-6.4h-20.9
	c-1.8,0-3.3,1.5-3.3,3.3v8.9c0,1.9,1.5,3.4,3.4,3.4h0.6c3.7,0,6.7,3,6.7,6.7v105c0,12.6-7.1,24.2-18.5,29.8
	c-39.5,19.6-66.6,60.4-66.6,107.5c0,42.1,21.7,79.2,54.6,100.6c3,2,7-0.2,7-3.8v-1.1c0-2,1-4,2.7-5.1c5.7-4,18.8-13.3,20.8-17.1
	c2.6-4.9,1.6-26.4,1.6-26.4s-27.7-2.6-43.1-9.5c-11.1-5-26.5-16.8-33-24.1c-2.4-2.7-2-6.8-2-6.8h64.1v-6.2h146.1
	c0,0,0.5,8.1-2.8,11.1c-3.3,2.9-32.9,14.7-41.7,21.8c-8.8,7.2-24.2,21.8-19.7,37.2c3.3,11.1,15.5,17.6,22,20.3c2.4,1,4,3.4,4,6.1v1
	c0,2.5,2.8,4,4.9,2.7c32.9-21.4,54.6-58.5,54.6-100.6c0-47-27.1-87.7-66.4-107.4C732.7,263.5,725.4,251.8,725.4,238.9z"/>
<circle id="XMLID_306_" cx="671" cy="325.8" r="7.8"/>
<circle id="XMLID_308_" cx="696.5" cy="336.7" r="10.8"/>
<ellipse id="XMLID_309_" cx="710.5" cy="314.9" rx="8.1" ry="8.4"/>
<ellipse id="XMLID_312_" cx="692.7" cy="244.8" rx="6" ry="5.9"/>
<ellipse id="XMLID_311_" cx="687.8" cy="286.1" rx="8.6" ry="8.4"/>
<ellipse id="XMLID_360_" cx="687.8" cy="307.8" rx="4.9" ry="4.8"/>
<ellipse id="XMLID_361_" cx="663.3" cy="306.5" rx="3.1" ry="3.1"/>
<ellipse id="XMLID_362_" cx="720.6" cy="330.5" rx="3.1" ry="3.1"/>
<ellipse id="XMLID_331_" cx="686.6" cy="201" rx="4" ry="3.9"/>
<ellipse id="XMLID_349_" cx="696.4" cy="162.8" rx="2.7" ry="2.6"/>
<ellipse id="XMLID_352_" cx="687.1" cy="129.5" rx="3.9" ry="3.9"/>
<ellipse id="XMLID_354_" cx="699.9" cy="100.6" rx="7.2" ry="7"/>
<ellipse id="XMLID_355_" cx="672.9" cy="79.8" rx="14" ry="13.7"/>
<ellipse id="XMLID_359_" cx="714.6" cy="42.9" rx="23.9" ry="23.4"/>
</svg>
